# xmcd
#
# Track frame offsets:
# 150
# 16674
# 30707
# 46632
# 64397
# 81144
# 98895
# 114548
# 130380
# 151610
# 167253
# 184009
# 199177
# 210763
# 226723
# 243623
#
# Disc length: 3466 seconds
#
#
# Revision: 0
# Processed by: cddbd v1.5.2PL0 Copyright (c) Steve Scherf et al.
# Submitted via: FreeRIP 2.95 
#
DISCID=bb0d8810
DTITLE=Nico batista - Nico Batista
DYEAR=2006
DGENRE=Blues
TTITLE0=a viagem
TTITLE1=fio de cabelo
TTITLE2=aventura de um poeta
TTITLE3=voltar a viver
TTITLE4=amor bandoleiro
TTITLE5=tempo para a felicidade
TTITLE6=quase nada ate eu sofri ate agora
TTITLE7=o ceu e a lua
TTITLE8=mulher dividida
TTITLE9=estacao de saudade
TTITLE10=vida de gado
TTITLE11=menino mimado
TTITLE12=minha fala
TTITLE13=sonhos melhores
TTITLE14=festa de vaquejada
TTITLE15=noite solitaria
EXTD=Ze capemba 081 9938-1530\n             \n                    081 99154205
EXTT0=
EXTT1=
EXTT2=
EXTT3=
EXTT4=
EXTT5=
EXTT6=
EXTT7=
EXTT8=
EXTT9=
EXTT10=
EXTT11=
EXTT12=
EXTT13=
EXTT14=
EXTT15=
PLAYORDER=
